<?xml version="1.0" standalone="no"?>
<!DOCTYPE svg PUBLIC "-//W3C//DTD SVG 20010904//EN"
 "http://www.w3.org/TR/2001/REC-SVG-20010904/DTD/svg10.dtd">
<svg version="1.0" xmlns="http://www.w3.org/2000/svg"
 width="2000.000000pt" height="2000.000000pt" viewBox="0 0 2000.000000 2000.000000" className="text-foreground"
 preserveAspectRatio="xMidYMid meet">

<g transform="translate(0.000000,2000.000000) scale(0.100000,-0.100000)"
fill="currentColor" stroke="none">
<path d="M6870 18887 c-318 -99 -660 -257 -943 -435 -336 -211 -630 -469 -885
-776 -65 -77 -124 -151 -132 -163 -8 -11 -35 -50 -60 -85 -164 -228 -322 -522
-426 -788 -58 -151 -76 -201 -108 -310 -19 -63 -43 -158 -55 -210 -12 -52 -26
-111 -31 -130 -4 -19 -15 -84 -24 -145 -9 -60 -21 -139 -27 -175 -16 -100 -23
-527 -11 -695 18 -256 65 -522 137 -770 35 -121 79 -260 98 -310 19 -49 44
-121 57 -160 50 -153 131 -238 273 -285 160 -54 347 14 444 160 51 76 79 184
68 258 -3 26 -49 172 -100 324 -103 304 -134 428 -164 653 -56 419 -27 831 84
1220 32 113 93 282 126 351 10 22 19 43 19 47 0 4 13 33 29 64 158 319 343
587 559 807 104 106 306 281 387 336 197 133 255 168 377 230 171 87 310 147
458 195 211 69 296 130 356 250 27 56 29 68 28 170 0 97 -4 117 -27 166 -33
73 -116 156 -191 194 -83 41 -207 46 -316 12z"/>
<path d="M7435 17539 c-195 -48 -517 -178 -685 -276 -82 -47 -108 -65 -231
-156 -134 -99 -309 -270 -411 -402 -125 -161 -267 -413 -337 -597 -122 -318
-170 -664 -141 -1013 19 -227 74 -428 235 -871 78 -213 313 -331 526 -264 96
30 163 73 215 138 62 77 93 156 100 256 l6 81 -90 270 c-114 341 -126 409
-119 638 4 134 11 194 30 272 76 313 246 584 491 779 124 99 239 161 446 240
236 90 246 95 310 142 138 101 202 299 151 463 -54 174 -208 295 -391 306 -36
2 -83 0 -105 -6z"/>
<path d="M9725 16861 c-3 -5 -31 -12 -63 -16 -183 -18 -457 -93 -652 -177 -73
-32 -233 -114 -318 -163 -22 -13 -163 -107 -177 -117 -5 -5 -32 -25 -60 -45
-188 -139 -441 -414 -587 -638 -179 -275 -323 -647 -368 -950 -6 -38 -15 -97
-20 -130 -6 -37 -10 -1190 -10 -2957 0 -1763 -4 -2906 -9 -2921 -5 -14 -52
-57 -103 -97 -369 -285 -748 -715 -993 -1128 -6 -9 -18 -28 -27 -42 -57 -86
-211 -397 -272 -550 -10 -25 -22 -54 -27 -65 -16 -35 -70 -189 -79 -221 -4
-18 -10 -37 -14 -43 -4 -6 -14 -37 -23 -68 -96 -360 -124 -513 -164 -903 -13
-133 -8 -565 10 -735 22 -218 74 -494 131 -700 12 -44 26 -93 30 -110 10 -37
28 -90 46 -133 8 -18 14 -39 14 -46 0 -7 9 -35 21 -62 27 -65 31 -74 74 -179
42 -101 178 -379 216 -440 14 -22 29 -47 33 -55 10 -23 26 -47 115 -185 25
-38 49 -74 53 -80 5 -5 52 -68 105 -140 141 -191 293 -360 488 -545 133 -126
195 -178 367 -308 150 -113 188 -138 363 -246 158 -96 384 -211 545 -276 30
-12 87 -35 125 -50 105 -43 291 -103 425 -138 225 -58 480 -104 652 -118 43
-3 80 -10 84 -15 7 -12 697 -12 710 1 5 5 43 12 84 15 184 14 608 97 740 145
14 4 59 18 100 30 103 29 262 89 410 153 146 64 438 215 518 268 24 16 45 29
47 29 11 0 252 169 349 244 279 217 562 502 769 775 204 267 380 561 496 826
12 28 28 64 36 80 20 45 32 75 55 135 12 30 27 66 32 80 6 14 14 39 19 55 4
17 18 62 32 100 87 256 159 594 189 900 17 166 17 650 1 820 -27 271 -81 546
-163 820 -12 39 -25 84 -30 100 -15 51 -40 119 -50 137 -6 10 -10 23 -10 29 0
6 -6 25 -14 42 -7 18 -37 88 -67 157 -52 121 -154 329 -197 400 -12 19 -26 44
-31 55 -5 11 -21 37 -35 58 -14 21 -26 40 -26 42 0 6 -162 249 -170 255 -4 3
-24 30 -45 60 -96 138 -329 395 -505 558 -95 87 -333 288 -352 296 -2 1 -5
1329 -8 2951 -4 2384 -8 2962 -19 3015 -7 36 -19 99 -28 140 -24 120 -71 281
-113 390 -12 30 -24 64 -28 75 -12 42 -161 326 -208 396 -170 258 -407 509
-649 687 -31 22 -162 109 -175 115 -8 4 -28 16 -45 26 -63 40 -287 147 -370
176 -27 9 -59 21 -70 25 -101 41 -332 96 -459 110 -43 5 -84 14 -89 19 -14 14
-553 15 -562 2z m495 -1182 c91 -17 223 -52 250 -66 14 -7 31 -13 38 -13 7 0
20 -4 30 -9 9 -5 42 -22 72 -37 144 -72 233 -135 349 -247 58 -56 191 -217
191 -230 0 -4 11 -23 25 -43 26 -38 79 -146 108 -219 18 -47 30 -86 60 -192
l21 -78 6 -3200 5 -3199 95 -73 c52 -41 100 -77 105 -82 6 -4 35 -25 65 -46
30 -21 64 -46 75 -56 11 -10 39 -30 61 -46 95 -64 301 -240 404 -343 157 -157
257 -278 405 -495 23 -33 44 -67 48 -75 4 -8 16 -28 26 -45 56 -88 150 -277
206 -415 10 -25 24 -59 31 -77 8 -17 14 -36 14 -42 0 -6 6 -25 14 -43 58 -138
123 -441 151 -698 31 -297 7 -688 -61 -962 -37 -153 -66 -256 -85 -306 -5 -13
-19 -52 -30 -85 -11 -34 -27 -75 -34 -92 -8 -16 -23 -52 -35 -80 -318 -734
-932 -1328 -1690 -1634 -441 -177 -992 -255 -1435 -201 -191 23 -277 38 -435
74 -109 25 -292 82 -357 112 -17 8 -37 14 -45 14 -8 0 -18 4 -24 9 -5 5 -54
28 -109 51 -55 23 -104 46 -110 50 -5 4 -46 27 -90 50 -583 311 -1082 851
-1348 1460 -9 19 -24 55 -35 80 -11 25 -29 73 -41 107 -11 33 -25 72 -30 85
-12 32 -36 112 -54 183 -156 599 -140 1165 50 1755 18 58 37 114 42 125 5 11
17 40 27 65 45 114 114 257 168 350 14 25 30 54 36 65 51 96 279 413 320 445
4 3 39 42 78 87 67 76 229 225 347 318 28 22 56 45 64 53 7 7 39 31 70 52 31
22 69 50 86 63 16 12 90 67 165 123 74 55 141 108 147 116 10 12 13 693 16
3209 l3 3194 21 78 c50 180 94 290 167 412 87 146 261 330 398 421 73 49 252
144 270 144 6 0 24 6 41 14 64 29 245 69 362 80 61 6 253 -3 315 -15z"/>
<path d="M9865 12770 c-202 -58 -339 -196 -399 -401 -15 -51 -16 -263 -16
-2478 l0 -2421 -22 -9 c-13 -5 -48 -16 -78 -26 -212 -65 -414 -165 -625 -308
-204 -138 -466 -417 -607 -646 -93 -152 -187 -360 -233 -516 -9 -33 -23 -79
-31 -103 -8 -23 -14 -53 -14 -67 0 -13 -4 -35 -10 -50 -12 -31 -28 -160 -39
-306 -11 -147 9 -429 40 -564 35 -151 65 -253 95 -322 8 -17 14 -35 14 -41 0
-5 12 -36 26 -68 171 -389 440 -716 791 -957 76 -52 111 -73 241 -143 60 -33
249 -113 291 -124 20 -5 70 -20 111 -33 309 -100 708 -115 1060 -40 82 17 318
90 390 119 99 42 300 150 385 207 220 148 423 346 583 569 141 197 267 468
330 708 80 304 95 648 40 940 -5 30 -14 80 -19 110 -5 30 -13 66 -18 80 -5 14
-17 52 -27 85 -137 475 -475 924 -910 1211 -87 57 -295 168 -344 184 -14 5
-50 18 -80 30 -30 11 -84 30 -120 41 -36 12 -75 25 -87 30 l-23 9 0 2422 c0
2380 -1 2424 -20 2486 -35 111 -72 174 -145 247 -140 140 -350 198 -530 145z"/>
<path d="M13640 14871 c-167 -50 -307 -179 -368 -341 -39 -101 -40 -280 -2
-378 68 -177 200 -296 390 -353 65 -20 2433 -21 2500 -1 344 100 512 455 368
777 -48 109 -150 210 -268 266 -107 51 -46 49 -1352 48 -1096 -1 -1218 -3
-1268 -18z"/>
<path d="M13645 12491 c-170 -48 -312 -182 -379 -356 -14 -39 -19 -78 -20
-175 -1 -115 1 -131 27 -197 66 -168 190 -284 365 -340 53 -17 106 -18 717
-18 617 0 664 1 715 19 70 23 166 76 205 113 49 45 116 135 137 183 27 61 58
186 58 235 0 49 -31 174 -58 235 -47 109 -165 225 -277 273 -106 46 -114 47
-790 46 -568 -1 -647 -3 -700 -18z"/>
<path d="M13695 10120 c-11 -5 -30 -9 -43 -9 -45 -2 -175 -75 -239 -134 -67
-63 -107 -125 -144 -222 -32 -82 -34 -260 -4 -350 51 -158 178 -289 337 -352
l73 -28 1235 0 1235 0 55 22 c30 11 75 32 100 45 58 30 168 139 205 202 97
166 100 370 9 546 -42 80 -154 188 -237 229 -130 63 -85 61 -1382 60 -649 0
-1189 -4 -1200 -9z"/>
</g>
</svg>
