<?xml version="1.0" standalone="no"?>
<!DOCTYPE svg PUBLIC "-//W3C//DTD SVG 20010904//EN"
 "http://www.w3.org/TR/2001/REC-SVG-20010904/DTD/svg10.dtd">
<svg version="1.0" xmlns="http://www.w3.org/2000/svg"
 width="2000.000000pt" height="2000.000000pt" viewBox="0 0 2000.000000 2000.000000"
 preserveAspectRatio="xMidYMid meet">

<g transform="translate(0.000000,2000.000000) scale(0.100000,-0.100000)"
fill="#000000" stroke="none">
<path d="M6904 18905 c-122 -35 -417 -147 -511 -194 -56 -28 -104 -51 -107
-51 -22 0 -312 -167 -441 -254 -191 -128 -245 -169 -390 -297 -344 -302 -613
-634 -823 -1014 -50 -90 -152 -293 -152 -301 0 -3 -18 -47 -39 -97 -85 -201
-141 -374 -193 -597 -25 -111 -38 -182 -79 -455 -16 -112 -22 -466 -10 -636
12 -172 42 -400 72 -550 35 -177 191 -670 254 -807 71 -151 246 -248 406 -224
124 19 235 85 293 176 66 103 85 224 53 336 -9 30 -50 154 -92 274 -83 240
-115 359 -139 511 -8 55 -20 132 -27 170 -17 108 -24 518 -10 632 58 475 174
835 395 1222 232 406 604 790 1004 1035 185 114 456 239 667 308 188 63 255
105 319 201 53 81 70 143 64 242 -10 153 -90 275 -223 341 -63 31 -85 37 -157
40 -53 2 -101 -2 -134 -11z"/>
<path d="M7460 17550 c-77 -13 -340 -100 -435 -145 -44 -20 -98 -44 -120 -53
-122 -49 -369 -212 -515 -341 -256 -225 -497 -563 -606 -848 -14 -38 -33 -86
-41 -108 -15 -40 -42 -130 -69 -235 -22 -87 -52 -314 -59 -450 -17 -319 61
-682 246 -1154 53 -136 157 -229 294 -265 125 -33 204 -24 332 39 111 55 197
178 223 321 16 89 8 137 -61 339 -127 369 -141 432 -142 650 -1 237 43 420
155 639 92 180 210 324 369 451 149 119 216 152 617 304 81 31 176 96 215 148
72 94 110 244 88 350 -47 231 -269 393 -491 358z"/>
<path d="M9666 16861 c-3 -4 -34 -11 -68 -15 -122 -12 -442 -99 -520 -142 -14
-8 -31 -14 -38 -14 -13 0 -204 -93 -295 -143 -174 -96 -386 -258 -545 -417
-106 -105 -284 -325 -335 -412 -5 -10 -33 -55 -60 -100 -73 -120 -185 -357
-185 -390 0 -8 -5 -19 -11 -25 -6 -6 -14 -26 -19 -44 -4 -19 -13 -47 -18 -64
-6 -16 -17 -55 -26 -85 -8 -30 -22 -80 -30 -111 -9 -31 -16 -69 -16 -85 0 -16
-5 -45 -11 -64 -5 -19 -17 -123 -24 -230 -12 -160 -14 -694 -15 -2986 l0
-2792 -33 -28 c-18 -16 -53 -45 -77 -64 -130 -104 -181 -149 -345 -314 -219
-219 -341 -360 -455 -526 -19 -28 -53 -77 -75 -108 -77 -108 -223 -360 -291
-502 -78 -164 -93 -197 -115 -255 -13 -33 -27 -64 -31 -69 -4 -6 -8 -16 -8
-24 0 -8 -7 -28 -15 -45 -8 -18 -30 -81 -50 -142 -35 -107 -48 -150 -79 -265
-8 -30 -22 -80 -30 -111 -9 -31 -16 -69 -16 -86 0 -17 -7 -50 -15 -73 -8 -23
-15 -57 -15 -74 0 -17 -6 -67 -14 -111 -8 -44 -22 -143 -31 -220 -20 -185 -21
-649 0 -790 8 -55 15 -122 15 -150 0 -27 7 -75 15 -105 8 -30 15 -70 15 -89 0
-19 6 -60 14 -90 18 -72 35 -146 45 -196 4 -22 12 -56 18 -75 6 -19 18 -60 27
-90 27 -96 59 -195 67 -205 3 -5 10 -26 14 -45 4 -19 11 -41 16 -50 15 -27 49
-112 49 -121 0 -18 181 -395 217 -452 13 -20 40 -68 60 -105 20 -37 39 -69 43
-72 3 -3 24 -35 46 -71 69 -116 268 -378 392 -518 147 -165 388 -397 514 -494
30 -23 78 -60 106 -82 124 -98 360 -254 477 -315 11 -6 47 -26 80 -45 139 -78
299 -152 475 -219 69 -27 140 -54 158 -62 18 -8 41 -14 52 -14 10 0 21 -4 25
-9 3 -5 20 -12 38 -16 17 -3 52 -12 77 -20 203 -62 412 -106 695 -146 98 -15
903 -23 919 -10 6 5 47 12 91 15 243 20 724 135 975 234 99 39 173 69 225 92
82 35 331 160 380 190 33 20 67 40 75 44 23 10 41 22 185 115 95 61 328 237
428 323 346 295 693 713 916 1103 48 83 185 356 217 433 8 17 20 47 28 65 28
64 76 190 76 199 0 6 6 24 14 41 8 18 24 66 36 107 12 41 26 82 30 90 4 9 11
31 14 50 4 19 13 55 21 80 7 25 20 81 30 125 9 44 21 97 26 117 5 20 14 67 19
105 5 37 14 97 19 133 26 166 34 275 38 530 5 271 -4 431 -38 650 -5 36 -14
96 -19 134 -6 38 -14 83 -19 100 -9 28 -19 74 -40 181 -4 22 -12 56 -18 75 -6
19 -18 60 -27 90 -18 65 -90 284 -104 320 -5 14 -18 45 -27 70 -10 25 -24 60
-32 77 -7 18 -20 47 -28 65 -21 51 -153 318 -178 363 -25 45 -97 169 -112 194
-92 150 -274 396 -396 535 -145 166 -399 408 -579 554 l-85 68 -6 2905 c-4
1739 -11 2936 -16 2984 -10 83 -26 168 -45 245 -6 25 -14 63 -18 85 -4 22 -13
55 -19 73 -24 71 -33 98 -41 127 -57 201 -251 556 -420 766 -263 327 -617 596
-1000 757 -19 8 -48 21 -63 28 -16 8 -32 14 -37 14 -5 0 -21 5 -37 12 -33 14
-102 35 -158 49 -22 5 -49 13 -60 18 -26 11 -120 31 -217 45 -42 6 -80 14 -84
19 -10 10 -672 9 -678 -2z m459 -1182 c39 -6 95 -14 125 -18 74 -11 149 -30
183 -47 16 -8 35 -14 43 -14 25 0 194 -85 269 -136 94 -63 215 -165 262 -222
21 -26 52 -62 69 -82 87 -99 192 -313 237 -480 50 -188 47 20 47 -3381 l0
-3156 318 -239 c283 -213 335 -257 492 -414 119 -118 210 -220 281 -315 95
-126 128 -176 222 -333 44 -74 125 -239 163 -332 19 -47 42 -98 50 -113 8 -16
14 -35 14 -44 0 -8 6 -29 14 -46 8 -18 21 -57 30 -87 46 -167 55 -201 69 -270
47 -231 62 -377 62 -625 0 -254 -15 -405 -62 -635 -31 -151 -91 -360 -129
-447 -8 -17 -14 -36 -14 -41 0 -6 -6 -23 -14 -39 -7 -15 -20 -44 -29 -63 -178
-413 -452 -790 -787 -1084 -155 -136 -358 -284 -475 -346 -11 -6 -33 -19 -50
-29 -32 -20 -206 -108 -265 -134 -19 -9 -56 -25 -82 -36 -26 -12 -53 -21 -60
-21 -8 0 -18 -4 -24 -8 -18 -17 -275 -96 -359 -112 -22 -4 -60 -12 -85 -18
-314 -76 -793 -89 -1105 -30 -33 6 -82 14 -110 18 -27 4 -72 13 -100 20 -143
35 -173 43 -205 55 -19 6 -60 20 -90 29 -107 34 -335 129 -415 173 -22 12 -62
33 -90 48 -27 14 -63 35 -80 45 -16 11 -37 23 -45 27 -24 11 -192 127 -266
183 -148 111 -345 298 -454 429 -25 30 -50 59 -55 65 -61 65 -230 314 -300
441 -62 112 -135 266 -170 355 -9 25 -23 59 -29 75 -13 30 -62 183 -91 285
-55 193 -105 565 -105 780 0 200 39 520 86 710 8 36 21 88 27 115 7 28 15 55
19 61 4 6 11 28 17 50 12 50 46 148 77 222 8 17 20 47 27 65 33 78 127 260
185 357 35 58 69 114 75 125 22 36 200 269 241 315 109 121 333 336 398 381
18 13 35 26 38 29 3 4 55 43 115 88 61 46 126 95 145 111 19 15 60 45 90 66
30 21 59 42 65 46 5 5 34 27 63 49 l52 40 0 3163 c0 3510 -6 3214 66 3440 68
213 165 375 312 524 48 49 114 109 147 134 141 108 329 204 453 229 23 5 50
13 60 18 9 5 44 12 77 16 33 4 83 10 110 15 73 12 170 12 250 0z"/>
<path d="M9860 12783 c-205 -70 -339 -202 -400 -392 -20 -63 -20 -84 -20
-2485 0 -1871 -3 -2425 -12 -2434 -7 -7 -23 -12 -36 -12 -13 0 -33 -5 -45 -12
-12 -6 -35 -15 -52 -19 -60 -15 -213 -78 -270 -111 -11 -6 -53 -29 -94 -50
-41 -21 -89 -50 -107 -63 -18 -14 -35 -25 -38 -25 -7 0 -108 -70 -116 -80 -3
-3 -34 -28 -70 -55 -95 -73 -278 -261 -357 -367 -107 -144 -133 -181 -133
-191 0 -4 -11 -23 -24 -40 -12 -18 -47 -81 -76 -142 -29 -60 -56 -118 -61
-127 -18 -35 -67 -177 -79 -228 -4 -19 -13 -48 -18 -65 -13 -37 -36 -149 -57
-271 -21 -126 -21 -455 0 -589 20 -125 43 -241 57 -280 5 -16 14 -46 18 -65 4
-19 18 -60 30 -90 12 -30 25 -66 30 -80 46 -141 174 -369 299 -535 86 -114
282 -316 386 -396 90 -70 211 -152 283 -192 31 -17 71 -39 87 -49 17 -10 37
-20 45 -24 18 -6 68 -28 113 -48 138 -62 347 -123 502 -146 159 -25 217 -29
360 -29 288 0 485 37 813 154 23 8 50 19 60 24 9 5 64 32 122 61 120 59 115
56 235 134 136 90 218 158 351 292 131 132 181 192 280 341 63 95 188 336 217
418 115 327 151 535 144 835 -4 195 -13 279 -43 420 -22 105 -67 263 -89 315
-7 17 -20 50 -30 75 -54 142 -170 343 -292 506 -256 344 -642 622 -1058 762
-49 17 -102 33 -117 36 l-28 6 0 2429 c0 2408 0 2429 -20 2492 -62 193 -199
326 -405 393 -65 21 -223 20 -285 -1z"/>
<path d="M13635 14884 c-170 -65 -290 -167 -352 -300 -80 -172 -70 -387 26
-541 46 -74 143 -165 213 -200 151 -75 10 -68 1383 -68 1181 0 1232 1 1280 19
90 34 129 55 187 101 212 167 278 446 163 691 -25 53 -100 149 -146 186 -59
48 -131 86 -203 109 -59 18 -110 19 -1286 18 -1071 0 -1230 -2 -1265 -15z"/>
<path d="M13640 12503 c-159 -54 -292 -166 -352 -293 -52 -111 -52 -111 -53
-250 0 -142 4 -162 57 -265 64 -125 179 -225 318 -275 74 -26 202 -31 805 -27
582 4 623 5 670 23 191 73 325 219 376 409 19 69 17 218 -4 280 -69 202 -198
331 -402 399 -45 14 -121 16 -710 15 -567 0 -666 -3 -705 -16z"/>
<path d="M13680 10131 c-8 -5 -30 -12 -49 -16 -32 -7 -88 -31 -140 -60 -76
-42 -192 -184 -227 -277 -41 -108 -41 -299 0 -406 67 -177 255 -330 434 -353
91 -11 2328 -11 2419 1 40 5 80 14 90 19 10 5 45 21 77 36 75 34 193 148 234
226 93 174 97 348 11 524 -70 145 -197 247 -370 298 -51 15 -169 17 -1260 17
-662 0 -1211 -4 -1219 -9z"/>
</g>
</svg>
